<svg viewBox="0 0 31.77 42.05" xmlns="http://www.w3.org/2000/svg" id="Calque_2">
  <defs>
    <style>
      .cls-1 {
        fill: #001405;
        stroke-width: 0px;
      }
    </style>
  </defs>
  <g id="Calque_1-2">
    <path d="M31.69,16.91c.66-4.42-2.7-6.79-7.3-8.38l1.49-5.99-3.64-.91-1.45,5.83c-.96-.24-1.94-.46-2.92-.69l1.46-5.87-3.64-.91-1.49,5.98c-.79-.18-1.57-.36-2.33-.55v-.02s-5.02-1.25-5.02-1.25l-.97,3.89s2.7.62,2.65.66c1.48.37,1.74,1.35,1.7,2.12l-1.7,6.82c.1.03.23.06.38.12-.12-.03-.25-.06-.39-.1l-2.38,9.55c-.18.45-.64,1.12-1.67.87.04.05-2.65-.66-2.65-.66l-1.81,4.17,4.74,1.18c.88.22,1.75.45,2.6.67l-1.51,6.05,3.64.91,1.49-5.99c.99.27,1.96.52,2.9.75l-1.49,5.96,3.64.91,1.51-6.04c6.21,1.18,10.89.7,12.85-4.92,1.58-4.52-.08-7.13-3.35-8.84,2.38-.55,4.17-2.12,4.65-5.35h0ZM23.37,28.58c-1.13,4.52-8.75,2.08-11.22,1.47l2-8.02c2.47.62,10.39,1.84,9.21,6.56ZM24.49,16.84c-1.03,4.12-7.37,2.02-9.43,1.51l1.81-7.27c2.06.51,8.68,1.47,7.61,5.76Z" class="cls-1"></path>
  </g>
</svg>