<svg viewBox="0 0 38.62 43.36" xmlns="http://www.w3.org/2000/svg" id="Calque_2">
  <defs>
    <style>
      .cls-1 {
        fill: #001405;
        stroke-width: 0px;
      }
    </style>
  </defs>
  <g id="Calque_1-2">
    <g>
      <path d="M35.94,12.74v15.06l.02.03v2.57s-.02-17.66-.02-17.66ZM24.19,19.86l3.19-5.39h0s-3.18,5.39-3.18,5.39Z" class="cls-1"></path>
      <polygon points="30.93 34.16 25.41 37.36 19.43 27.97 23.08 21.78 30.93 34.16" class="cls-1"></polygon>
      <path d="M35.96,30.4v.17c0,.28-.12.54-.3.76-.06.08-.12.15-.2.21l-3,1.73-8.29-13.4,3.18-5.4h0s8.55,13.33,8.55,13.33l.02.03v2.57Z" class="cls-1"></path>
      <path d="M18.31,12.67l-14.08,22.58-4.23-2.44v-1.54l2.69-4.13,7.99-12.39c1.01-1.65,3.2-2.18,5.24-2.15l2.38.06Z" class="cls-1"></path>
      <polygon points="26.44 12.67 12.23 36.77 10.87 39.07 5.89 36.21 20.14 12.7 26.44 12.67" class="cls-1"></polygon>
      <path d="M38.62,12.64v18.02c-.05,1.18-.6,2.27-1.53,3l-16.28,9.42c-.46.19-.96.28-1.46.28-.55,0-1.15-.12-1.58-.33-.06-.03-.21-.11-.43-.24-.15-.08-.32-.18-.51-.3l-5.96-3.43,1.35-2.3h0l6.62,3.81c.31.13.65.13.96.02l5.61-3.24,5.52-3.2,1.55-.9,3-1.73c.08-.06.14-.13.2-.21.17-.22.26-.48.27-.76V12.74c-.02-.43-.25-.83-.61-1.05L19.86,2.8c-.35-.18-.82-.18-1.17,0,0,0-.41.24-1.08.63-.11.06-.23.14-.35.21-.08.04-.15.09-.23.13-.24.14-.49.29-.77.44-.81.46-1.77,1.02-2.81,1.63-.23.13-.45.27-.69.4-.59.34-1.19.69-1.79,1.03-.72.41-1.45.84-2.14,1.24-.35.2-.7.39-1.02.59-1.11.64-2.12,1.22-2.91,1.68-.16.09-.31.17-.44.26-.46.27-.81.47-1.01.59,0,0-.02,0-.03.02-.05,0-.09.04-.14.08-.03.02-.05.03-.05.03-.15.1-.27.23-.35.36-.09.15-.15.31-.19.47,0,.05,0,.11,0,.16l.02,14.39-2.69,4.13V12.63c.06-1.21.67-2.33,1.67-3.04.19-.13.39-.26.6-.35C2.27,9.23,17.36.48,17.49.41c1.1-.55,2.48-.55,3.59,0l15.66,9.01c1.11.7,1.83,1.91,1.88,3.22Z" class="cls-1"></path>
    </g>
  </g>
</svg>