<svg xmlns="http://www.w3.org/2000/svg" fill="none" viewBox="0 0 178 178" height="178" width="178">
<path fill="#001405" d="M89 178C138.153 178 178 138.153 178 89C178 39.8467 138.153 0 89 0C39.8467 0 0 39.8467 0 89C0 138.153 39.8467 178 89 178Z"></path>
<path fill="white" d="M112.109 108.672V120.692H62.5228C63.2068 112.781 65.7595 107.215 74.5873 99.3881L112.109 67.3779V95.4674H125.616V43.7891H48.8127V69.5489H62.3196V57.2961H103.123L65.7843 89.1625L65.695 89.2467C50.0468 103.101 48.8027 114.283 48.8027 127.458V134.209H125.621V108.682H112.114L112.109 108.672Z"></path>
</svg>
