<svg viewBox="0 0 42.58 37.51" xmlns="http://www.w3.org/2000/svg" id="Calque_2">
  <defs>
    <style>
      .cls-1 {
        fill: #001405;
        stroke-width: 0px;
      }
    </style>
  </defs>
  <g id="Calque_1-2">
    <path d="M42.36,29.57l-7.03,7.43c-.15.16-.34.29-.54.38-.21.09-.43.13-.65.13H.82c-.16,0-.31-.05-.45-.13-.13-.09-.24-.21-.3-.35s-.08-.3-.06-.46c.03-.15.1-.3.21-.41l7.03-7.43c.15-.16.34-.29.54-.38.2-.09.43-.13.65-.13h33.32c.16,0,.31.05.45.13.13.09.24.21.3.35.06.14.08.3.06.46-.03.15-.1.3-.21.41ZM35.33,14.62c-.15-.16-.34-.29-.54-.38-.21-.09-.43-.13-.65-.13H.82c-.16,0-.31.05-.45.13-.13.09-.24.21-.3.35s-.08.3-.06.46c.03.15.1.3.21.41l7.03,7.43c.15.16.34.29.54.38s.43.13.65.13h33.32c.16,0,.31-.05.45-.13.13-.09.24-.21.3-.35.06-.14.08-.3.06-.46-.03-.15-.1-.3-.21-.41l-7.03-7.43ZM.82,9.29h33.32c.22,0,.45-.05.65-.13.21-.09.39-.22.54-.38l7.03-7.43c.11-.11.18-.26.21-.41.03-.15,0-.31-.06-.46-.06-.14-.17-.27-.3-.35-.13-.09-.29-.13-.45-.13H8.44c-.22,0-.44.05-.65.13-.2.09-.39.22-.54.38L.22,7.94c-.11.11-.18.26-.21.41-.03.15,0,.31.06.46.06.14.17.27.3.35.13.09.29.13.45.13Z" class="cls-1"></path>
  </g>
</svg>