<svg viewBox="0 0 42.64 37.85" xmlns="http://www.w3.org/2000/svg" id="Calque_2">
  <defs>
    <style>
      .cls-1 {
        fill: #001405;
        fill-rule: evenodd;
        stroke-width: 0px;
      }
    </style>
  </defs>
  <g id="Calque_1-2">
    <path d="M18.03,33.6l-.03.04c-.82,1.44-1.23,2.16-1.81,2.71-.63.6-1.38,1.03-2.21,1.28-.75.21-1.59.21-3.28.21H3.53c-1.51,0-2.25,0-2.7-.29-.48-.32-.78-.85-.83-1.43-.03-.54.35-1.19,1.09-2.49L18.79,2.43c.76-1.33,1.14-1.99,1.61-2.24.52-.26,1.14-.26,1.66,0,.48.25.86.91,1.61,2.24l3.65,6.35.02.04c.81,1.42,1.22,2.14,1.4,2.9.2.83.2,1.7,0,2.52-.18.77-.59,1.49-1.41,2.93l-9.3,16.43ZM41.82,37.55c-.46.3-1.22.3-2.74.3h-10.27c-1.51,0-2.28,0-2.72-.29-.49-.32-.79-.85-.83-1.44-.03-.53.35-1.18,1.1-2.47l.02-.04,5.13-8.8c.76-1.29,1.14-1.95,1.6-2.18.52-.26,1.13-.26,1.65,0,.47.24.84.85,1.56,2.08l.05.1,5.15,8.8s.04.09.07.13c.71,1.23,1.07,1.86,1.05,2.38-.03.58-.33,1.12-.82,1.44Z" class="cls-1"></path>
  </g>
</svg>