<svg viewBox="0 0 42.64 37.51" xmlns="http://www.w3.org/2000/svg" id="Calque_2">
  <defs>
    <style>
      .cls-1 {
        fill: #001405;
        stroke-width: 0px;
      }
    </style>
  </defs>
  <g id="Calque_1-2">
    <path d="M32.28,11.47c-.78-.45-1.78-.45-2.67,0l-6.23,3.67-4.23,2.34-6.12,3.67c-.78.45-1.78.45-2.67,0l-4.79-2.89c-.78-.45-1.34-1.34-1.34-2.34v-5.57c0-.89.45-1.78,1.34-2.34l4.79-2.78c.78-.45,1.78-.45,2.67,0l4.79,2.89c.78.45,1.34,1.34,1.34,2.34v3.67l4.23-2.45v-3.78c0-.89-.45-1.78-1.34-2.34L13.14.33c-.78-.45-1.78-.45-2.67,0L1.34,5.68c-.89.45-1.34,1.34-1.34,2.23v10.46c0,.89.45,1.78,1.34,2.34l9.02,5.23c.78.45,1.78.45,2.67,0l6.12-3.56,4.23-2.45,6.12-3.56c.78-.45,1.78-.45,2.67,0l4.79,2.78c.78.45,1.34,1.34,1.34,2.34v5.57c0,.89-.45,1.78-1.34,2.34l-4.68,2.78c-.78.45-1.78.45-2.67,0l-4.79-2.78c-.78-.45-1.34-1.34-1.34-2.34v-3.56l-4.23,2.45v3.67c0,.89.45,1.78,1.34,2.34l9.02,5.23c.78.45,1.78.45,2.67,0l9.02-5.23c.78-.45,1.34-1.34,1.34-2.34v-10.58c0-.89-.45-1.78-1.34-2.34l-9.02-5.23Z" class="cls-1"></path>
  </g>
</svg>