<svg viewBox="0 0 45.49 71.07" xmlns="http://www.w3.org/2000/svg" id="Calque_2">
  <defs>
    <style>
      .cls-1 {
        fill: #001405;
        fill-rule: evenodd;
        stroke-width: 0px;
      }
    </style>
  </defs>
  <g id="Calque_1-2">
    <path d="M21.43,2.1L1.1,34.44c-.24.2-.41.47-.48.76l-.63,1,22.74,13.16,22.74-13.16L24.06,2.1c-.06-.15-.15-.29-.26-.42l-1.06-1.68-1.06,1.68c-.11.12-.2.26-.26.42ZM21.32,7.61l-15.39,24.49,15.39-7.32V7.61ZM21.32,27.92l-16.43,7.82,16.43,9.51v-17.33ZM24.16,45.25v-17.3l16.16,7.95-16.16,9.35ZM24.16,24.78V7.61l15.62,24.86-15.62-7.68ZM22.58,53.21L0,40.14l22.74,30.93,22.74-30.93-22.58,13.07c-.05,0-.11,0-.17,0s-.11,0-.17,0ZM21.32,55.77l-10.97-6.35,10.97,14.93v-8.57ZM24.16,64.34l10.97-14.93-10.97,6.35v8.57Z" class="cls-1"></path>
  </g>
</svg>