<svg viewBox="0 0 56.02 56.03" xmlns="http://www.w3.org/2000/svg" id="Calque_2">
  <defs>
    <style>
      .cls-1, .cls-2 {
        fill: #001405;
        stroke-width: 0px;
      }

      .cls-2 {
        fill-rule: evenodd;
      }
    </style>
  </defs>
  <g id="Calque_1-2">
    <g>
      <path d="M25.06,37.9l-12.48,5.36c-1.05.45-2.07-.71-1.48-1.69l6.95-11.68c.26-.44.21-1-.13-1.39l-8.96-10.22c-.76-.86.03-2.19,1.15-1.93l13.25,3c.5.11,1.02-.11,1.28-.55l6.95-11.68c.59-.99,2.09-.64,2.2.5l1.24,13.53c.05.51.42.93.92,1.05l13.25,3c1.12.25,1.26,1.79.21,2.24l-12.48,5.36c-.47.2-.76.68-.71,1.2l1.24,13.53c.1,1.14-1.31,1.75-2.07.89l-8.96-10.22c-.34-.39-.89-.51-1.36-.31Z" class="cls-2"></path>
      <path d="M28.02,56.03c-2.04,0-4.11-.22-6.19-.69C6.76,51.92-2.72,36.89.69,21.83,4.11,6.76,19.14-2.72,34.2.7c15.06,3.41,24.54,18.44,21.13,33.5-2.94,12.99-14.52,21.83-27.31,21.83ZM28.01,1.74C16.01,1.74,5.15,10.03,2.39,22.21c-3.2,14.13,5.69,28.23,19.82,31.43,6.85,1.55,13.88.34,19.82-3.4,5.94-3.74,10.06-9.58,11.61-16.42,3.2-14.13-5.69-28.23-19.82-31.43-1.94-.44-3.89-.65-5.81-.65Z" class="cls-1"></path>
    </g>
  </g>
</svg>