<svg viewBox="0 0 43.5 50" xmlns="http://www.w3.org/2000/svg" id="Calque_2">
  <defs>
    <style>
      .cls-1 {
        fill: #001405;
        stroke-width: 0px;
      }
    </style>
  </defs>
  <g id="Calque_1-2">
    <path d="M13.25,39.5l-4.75,2.75,13.25,7.75,13.25-7.75-4.75-2.75-8.5,4.75-8.5-4.75ZM38.5,34.75v-5.75l4.75,2.75v5.75l-4.75,2.75-4.75-2.75,4.75-2.75ZM17,37.5l4.75-2.75,4.75,2.75-4.75,2.75-4.75-2.75ZM35,32.75l-4.75,2.75-8.5-4.75-8.5,4.75-4.75-2.75v-5.75l8.5-4.75v-9.75l4.75-2.75,4.75,2.75v9.75l8.5,4.75v5.75ZM38.5,15.25l-8.25-4.75v-5.75l13.25,7.75v15.25l-5-2.75v-9.75ZM30.25,14.5l4.75,2.75v5.75l-4.75-2.75v-5.75ZM17,8.5V2.75l4.75-2.75,4.75,2.75v5.75l-4.75-2.75-4.75,2.75h0ZM0,31.75l4.75-2.75v5.75l5,2.75-4.75,2.75-5-2.75v-5.75h0ZM5,25L.25,27.75v-15.25l13.25-7.75v5.75l-8.5,4.75s0,9.75,0,9.75ZM13.25,20.25l-4.75,2.75v-5.75l4.75-2.75v5.75Z" class="cls-1"></path>
  </g>
</svg>