<svg viewBox="0 0 47.52 50" xmlns="http://www.w3.org/2000/svg" id="Calque_2">
  <defs>
    <style>
      .cls-1 {
        fill: #001405;
        stroke-width: 0px;
      }
    </style>
  </defs>
  <g id="Calque_1-2">
    <g id="tron">
      <path d="M46.87,15.06c-2.34-2.16-5.59-5.47-8.23-7.81l-.16-.11c-.26-.21-.55-.37-.87-.48h0C31.26,5.47,1.62-.07,1.05,0c-.16.02-.32.08-.45.17l-.15.12C.26.48.12.7.04.95l-.04.1v.64c3.34,9.29,16.51,39.72,19.1,46.86.16.48.45,1.41,1.01,1.45h.12c.3,0,1.56-1.67,1.56-1.67,0,0,22.62-27.44,24.91-30.36.3-.36.56-.75.78-1.16.12-.65-.12-1.32-.62-1.75ZM27.6,18.26l9.66-8.01,5.66,5.22-15.32,2.79ZM23.85,17.73L7.23,4.11l26.9,4.96-10.27,8.66ZM25.35,21.31l17.02-2.74-19.45,23.44,2.44-20.7ZM4.97,5.47l17.49,14.84-2.53,21.7L4.97,5.47Z" class="cls-1"></path>
    </g>
  </g>
</svg>